<svg xmlns="http://www.w3.org/2000/svg" xmlns:xlink="http://www.w3.org/1999/xlink" width="512" zoomAndPan="magnify" viewBox="0 0 384 383.999986" height="512" preserveAspectRatio="xMidYMid meet" version="1.0"><defs><g/><clipPath id="87b7e14cc9"><path d="M 18 0 L 366 0 C 375.941406 0 384 8.058594 384 18 L 384 366 C 384 375.941406 375.941406 384 366 384 L 18 384 C 8.058594 384 0 375.941406 0 366 L 0 18 C 0 8.058594 8.058594 0 18 0 Z M 18 0 " clip-rule="nonzero"/></clipPath><clipPath id="730802aad2"><path d="M 0 0 L 384 0 L 384 384 L 0 384 Z M 0 0 " clip-rule="nonzero"/></clipPath><clipPath id="1499055ef2"><path d="M 18 0 L 366 0 C 375.941406 0 384 8.058594 384 18 L 384 366 C 384 375.941406 375.941406 384 366 384 L 18 384 C 8.058594 384 0 375.941406 0 366 L 0 18 C 0 8.058594 8.058594 0 18 0 Z M 18 0 " clip-rule="nonzero"/></clipPath><clipPath id="759e235f92"><rect x="0" width="384" y="0" height="384"/></clipPath><clipPath id="de1dc2106d"><rect x="0" width="384" y="0" height="360"/></clipPath></defs><g clip-path="url(#87b7e14cc9)"><g><g clip-path="url(#759e235f92)"><g clip-path="url(#730802aad2)"><g clip-path="url(#1499055ef2)"><rect x="-84.48" width="552.96" fill="#ffffff" height="552.959979" y="-84.479997" fill-opacity="1"/></g></g></g></g></g><g><g clip-path="url(#de1dc2106d)"><g fill="#ff751f" fill-opacity="1"><g transform="translate(-7.295142, 299.322982)"><g><path d="M 23.480469 -205.921875 L 111.332031 -205.921875 C 126.417969 -205.921875 139.8125 -203.910156 151.519531 -199.890625 C 163.359375 -195.824219 173.308594 -190.394531 181.363281 -183.601562 C 189.570312 -176.679688 195.800781 -168.78125 200.046875 -159.902344 C 204.332031 -150.953125 206.472656 -141.851562 206.472656 -132.601562 C 206.472656 -125.902344 205.804688 -119.273438 204.460938 -112.726562 C 203.03125 -105.738281 200.503906 -99.136719 196.875 -92.925781 C 193.164062 -86.574219 188.140625 -80.886719 181.796875 -75.871094 C 175.480469 -70.871094 167.601562 -66.886719 158.164062 -63.917969 L 154.980469 -74.035156 L 165.113281 -77.171875 C 166.140625 -73.859375 167.949219 -69.605469 170.546875 -64.414062 C 173.316406 -58.878906 176.539062 -52.875 180.222656 -46.410156 C 183.945312 -39.875 187.941406 -33.105469 192.210938 -26.109375 C 196.519531 -19.050781 200.738281 -12.222656 204.863281 -5.621094 L 215.007812 10.609375 L 118.242188 10.609375 L 115.445312 4.300781 C 111.398438 -4.828125 107.269531 -15.035156 103.050781 -26.332031 C 98.695312 -37.992188 95.21875 -50.652344 92.621094 -64.320312 L 103.042969 -66.300781 L 103.042969 -55.691406 L 85.363281 -55.691406 L 85.363281 -66.300781 L 95.972656 -66.300781 L 95.972656 10.609375 L 12.875 10.609375 L 12.875 -205.921875 Z M 23.480469 -184.703125 L 23.480469 -195.3125 L 34.089844 -195.3125 L 34.089844 0 L 23.480469 0 L 23.480469 -10.609375 L 85.363281 -10.609375 L 85.363281 0 L 74.753906 0 L 74.753906 -76.910156 L 111.824219 -76.910156 L 113.464844 -68.28125 C 115.839844 -55.796875 118.992188 -44.289062 122.925781 -33.753906 C 126.996094 -22.855469 130.96875 -13.039062 134.84375 -4.300781 L 125.144531 0 L 125.144531 -10.609375 L 195.867188 -10.609375 L 195.867188 0 L 186.871094 5.621094 C 182.707031 -1.039062 178.449219 -7.929688 174.101562 -15.054688 C 169.71875 -22.238281 165.613281 -29.1875 161.785156 -35.914062 C 157.914062 -42.707031 154.507812 -49.046875 151.570312 -54.925781 C 148.453125 -61.15625 146.214844 -66.480469 144.84375 -70.898438 L 141.722656 -80.988281 L 151.796875 -84.15625 C 158.746094 -86.34375 164.359375 -89.128906 168.632812 -92.507812 C 172.882812 -95.871094 176.1875 -99.578125 178.554688 -103.628906 C 181.007812 -107.824219 182.714844 -112.277344 183.675781 -116.980469 C 184.730469 -122.125 185.257812 -127.332031 185.257812 -132.601562 C 185.257812 -138.640625 183.808594 -144.6875 180.910156 -150.746094 C 177.976562 -156.878906 173.566406 -162.421875 167.6875 -167.382812 C 161.652344 -172.46875 153.964844 -176.617188 144.628906 -179.824219 C 135.152344 -183.078125 124.054688 -184.703125 111.332031 -184.703125 Z M 95.859375 -107.851562 C 101.558594 -107.851562 106.214844 -108.539062 109.832031 -109.917969 C 113.308594 -111.242188 116.042969 -112.871094 118.035156 -114.804688 C 119.902344 -116.617188 121.226562 -118.597656 122.007812 -120.746094 C 122.917969 -123.261719 123.375 -125.742188 123.375 -128.183594 C 123.375 -133.96875 122.664062 -138.484375 121.234375 -141.730469 C 119.957031 -144.636719 118.308594 -146.84375 116.292969 -148.359375 C 114.078125 -150.019531 111.453125 -151.152344 108.421875 -151.757812 C 104.503906 -152.542969 100.269531 -152.933594 95.722656 -152.933594 L 85.363281 -152.933594 L 85.363281 -163.542969 L 95.972656 -163.542969 L 95.972656 -97.242188 L 85.363281 -97.242188 L 85.363281 -107.851562 Z M 95.859375 -86.632812 L 74.753906 -86.632812 L 74.753906 -174.152344 L 95.722656 -174.152344 C 101.671875 -174.152344 107.292969 -173.621094 112.582031 -172.566406 C 118.761719 -171.328125 124.238281 -168.917969 129.023438 -165.332031 C 134.003906 -161.59375 137.882812 -156.574219 140.65625 -150.273438 C 143.28125 -144.308594 144.59375 -136.945312 144.59375 -128.183594 C 144.59375 -123.257812 143.714844 -118.367188 141.953125 -113.515625 C 140.0625 -108.300781 137.015625 -103.652344 132.804688 -99.570312 C 128.722656 -95.609375 123.582031 -92.449219 117.386719 -90.089844 C 111.335938 -87.785156 104.160156 -86.632812 95.859375 -86.632812 Z M 95.859375 -86.632812 "/></g></g></g><g fill="#ff751f" fill-opacity="1"><g transform="translate(193.819208, 299.322982)"><g><path d="M 158.589844 -134.90625 C 155.09375 -136.441406 150.980469 -138.011719 146.25 -139.617188 C 141.503906 -141.226562 136.527344 -142.691406 131.320312 -144.003906 C 126.160156 -145.304688 120.933594 -146.367188 115.636719 -147.191406 C 110.5625 -147.980469 105.8125 -148.375 101.386719 -148.375 C 94.257812 -148.375 88.945312 -147.585938 85.457031 -146.007812 C 85.066406 -145.828125 84.769531 -145.65625 84.5625 -145.488281 C 84.519531 -145.453125 84.484375 -145.425781 84.464844 -145.398438 L 84.46875 -145.40625 C 84.472656 -145.417969 84.476562 -145.425781 84.480469 -145.429688 C 84.472656 -145.414062 84.464844 -145.386719 84.453125 -145.351562 C 84.398438 -145.140625 84.367188 -144.851562 84.367188 -144.480469 C 84.367188 -144.714844 84.308594 -144.898438 84.191406 -145.027344 C 85.03125 -144.097656 86.441406 -143.125 88.421875 -142.105469 C 91.109375 -140.722656 94.402344 -139.351562 98.304688 -137.996094 C 102.570312 -136.515625 107.3125 -134.964844 112.542969 -133.34375 L 122.667969 -130.152344 C 131.753906 -127.386719 139.972656 -124.015625 147.320312 -120.039062 C 155.039062 -115.863281 161.617188 -110.898438 167.046875 -105.144531 C 172.636719 -99.21875 176.929688 -92.441406 179.914062 -84.808594 C 182.886719 -77.210938 184.375 -68.695312 184.375 -59.257812 C 184.375 -48.457031 182.640625 -38.554688 179.175781 -29.550781 C 175.550781 -20.125 169.898438 -12.074219 162.21875 -5.394531 C 154.730469 1.117188 145.320312 6.109375 133.988281 9.589844 C 123.074219 12.9375 110.136719 14.613281 95.171875 14.613281 C 82.246094 14.613281 69.398438 13.554688 56.621094 11.433594 C 43.640625 9.277344 30.570312 5.519531 17.40625 0.15625 L 10.800781 -2.535156 L 10.800781 -72.59375 L 26.242188 -64.695312 C 37.402344 -58.984375 48.1875 -54.824219 58.59375 -52.210938 C 68.933594 -49.617188 79.101562 -48.316406 89.09375 -48.316406 C 92.792969 -48.316406 95.898438 -48.59375 98.40625 -49.140625 C 100.289062 -49.554688 101.679688 -50.074219 102.574219 -50.695312 C 103.1875 -51.125 103.605469 -51.550781 103.824219 -51.976562 C 104.058594 -52.429688 104.175781 -53.058594 104.175781 -53.871094 C 104.175781 -54.671875 104.058594 -55.242188 103.824219 -55.578125 C 103.25 -56.394531 102.003906 -57.328125 100.085938 -58.378906 C 97.246094 -59.9375 93.386719 -61.5625 88.511719 -63.257812 C 83.191406 -65.105469 76.722656 -67.207031 69.105469 -69.566406 C 60.765625 -72.046875 52.992188 -75.203125 45.785156 -79.035156 C 38.21875 -83.054688 31.65625 -87.925781 26.097656 -93.648438 C 20.367188 -99.542969 15.882812 -106.382812 12.648438 -114.167969 C 9.390625 -122.007812 7.761719 -130.824219 7.761719 -140.613281 C 7.761719 -150.703125 9.5625 -160.003906 13.160156 -168.503906 C 16.882812 -177.304688 22.550781 -184.8125 30.171875 -191.03125 C 37.535156 -197.039062 46.707031 -201.671875 57.691406 -204.929688 C 68.296875 -208.078125 80.746094 -209.652344 95.03125 -209.652344 C 100.558594 -209.652344 106.402344 -209.410156 112.570312 -208.929688 C 118.714844 -208.449219 124.976562 -207.730469 131.347656 -206.769531 C 137.792969 -205.800781 144.167969 -204.539062 150.472656 -202.988281 C 156.871094 -201.414062 162.945312 -199.535156 168.6875 -197.359375 L 175.894531 -194.625 L 172.703125 -128.710938 Z M 167.117188 -154.332031 L 162.851562 -144.621094 L 152.257812 -145.132812 L 154.328125 -187.953125 L 164.925781 -187.441406 L 161.164062 -177.519531 C 156.222656 -179.394531 150.96875 -181.015625 145.398438 -182.386719 C 139.730469 -183.78125 133.996094 -184.917969 128.195312 -185.789062 C 122.320312 -186.671875 116.5625 -187.335938 110.917969 -187.777344 C 105.300781 -188.214844 100.003906 -188.433594 95.03125 -188.433594 C 82.796875 -188.433594 72.363281 -187.152344 63.722656 -184.589844 C 55.460938 -182.140625 48.75 -178.808594 43.589844 -174.59375 C 38.683594 -170.589844 35.054688 -165.808594 32.699219 -160.238281 C 30.21875 -154.378906 28.980469 -147.835938 28.980469 -140.613281 C 28.980469 -133.644531 30.066406 -127.542969 32.242188 -122.308594 C 34.441406 -117.015625 37.464844 -112.394531 41.308594 -108.433594 C 45.324219 -104.304688 50.136719 -100.75 55.742188 -97.769531 C 61.699219 -94.601562 68.246094 -91.957031 75.378906 -89.835938 C 83.230469 -87.402344 89.925781 -85.226562 95.476562 -83.296875 C 101.464844 -81.214844 106.402344 -79.113281 110.28125 -76.984375 C 115.085938 -74.351562 118.722656 -71.28125 121.1875 -67.769531 C 123.992188 -63.777344 125.394531 -59.144531 125.394531 -53.871094 C 125.394531 -49.617188 124.484375 -45.734375 122.667969 -42.226562 C 120.839844 -38.691406 118.183594 -35.714844 114.703125 -33.285156 C 108.78125 -29.164062 100.246094 -27.101562 89.09375 -27.101562 C 77.351562 -27.101562 65.464844 -28.609375 53.429688 -31.632812 C 41.457031 -34.636719 29.175781 -39.363281 16.578125 -45.808594 L 21.410156 -55.25 L 32.019531 -55.25 L 32.019531 -9.667969 L 21.410156 -9.667969 L 25.414062 -19.492188 C 37.113281 -14.726562 48.675781 -11.394531 60.097656 -9.5 C 71.722656 -7.566406 83.414062 -6.601562 95.171875 -6.601562 C 108.015625 -6.601562 118.878906 -7.964844 127.761719 -10.695312 C 136.230469 -13.292969 143.074219 -16.863281 148.292969 -21.402344 C 153.320312 -25.773438 157.011719 -31.027344 159.375 -37.167969 C 161.894531 -43.722656 163.15625 -51.085938 163.15625 -59.257812 C 163.15625 -66.027344 162.15625 -71.964844 160.15625 -77.078125 C 158.171875 -82.152344 155.324219 -86.652344 151.617188 -90.582031 C 147.746094 -94.683594 142.949219 -98.28125 137.222656 -101.378906 C 131.125 -104.679688 124.148438 -107.523438 116.292969 -109.914062 L 106.253906 -113.078125 C 100.800781 -114.769531 95.828125 -116.394531 91.34375 -117.953125 C 86.496094 -119.636719 82.289062 -121.398438 78.710938 -123.238281 C 74.433594 -125.441406 71.007812 -127.964844 68.441406 -130.8125 C 64.914062 -134.71875 63.152344 -139.277344 63.152344 -144.480469 C 63.152344 -149.214844 64.339844 -153.394531 66.714844 -157.023438 C 69.058594 -160.609375 72.390625 -163.378906 76.703125 -165.335938 C 82.976562 -168.175781 91.203125 -169.59375 101.386719 -169.59375 C 106.90625 -169.59375 112.746094 -169.113281 118.902344 -168.15625 C 124.84375 -167.230469 130.710938 -166.035156 136.507812 -164.574219 C 142.261719 -163.125 147.785156 -161.503906 153.070312 -159.707031 C 158.378906 -157.90625 163.0625 -156.113281 167.117188 -154.332031 Z M 167.117188 -154.332031 "/></g></g></g><g fill="#000000" fill-opacity="1"><g transform="translate(-7.295142, 299.322982)"><g><path d="M 23.484375 -195.3125 L 111.328125 -195.3125 C 125.234375 -195.3125 137.476562 -193.492188 148.0625 -189.859375 C 158.65625 -186.222656 167.472656 -181.429688 174.515625 -175.484375 C 181.566406 -169.546875 186.890625 -162.820312 190.484375 -155.3125 C 194.078125 -147.8125 195.875 -140.242188 195.875 -132.609375 C 195.875 -126.617188 195.273438 -120.695312 194.078125 -114.84375 C 192.878906 -109 190.757812 -103.472656 187.71875 -98.265625 C 184.675781 -93.066406 180.507812 -88.375 175.21875 -84.1875 C 169.925781 -80 163.179688 -76.613281 154.984375 -74.03125 C 156.179688 -70.164062 158.207031 -65.378906 161.0625 -59.671875 C 163.914062 -53.960938 167.226562 -47.789062 171 -41.15625 C 174.78125 -34.53125 178.832031 -27.671875 183.15625 -20.578125 C 187.488281 -13.492188 191.726562 -6.632812 195.875 0 L 125.140625 0 C 121.179688 -8.9375 117.128906 -18.953125 112.984375 -30.046875 C 108.847656 -41.140625 105.535156 -53.222656 103.046875 -66.296875 L 85.359375 -66.296875 L 85.359375 0 L 23.484375 0 Z M 95.859375 -97.25 C 102.859375 -97.25 108.773438 -98.164062 113.609375 -100 C 118.441406 -101.84375 122.378906 -104.238281 125.421875 -107.1875 C 128.460938 -110.132812 130.648438 -113.445312 131.984375 -117.125 C 133.316406 -120.8125 133.984375 -124.5 133.984375 -128.1875 C 133.984375 -135.457031 132.96875 -141.394531 130.9375 -146 C 128.914062 -150.601562 126.15625 -154.21875 122.65625 -156.84375 C 119.15625 -159.46875 115.101562 -161.238281 110.5 -162.15625 C 105.894531 -163.082031 100.96875 -163.546875 95.71875 -163.546875 L 85.359375 -163.546875 L 85.359375 -97.25 Z M 95.859375 -97.25 "/></g></g><g transform="translate(193.819218, 299.322982)"><g><path d="M 162.859375 -144.625 C 159.078125 -146.28125 154.675781 -147.957031 149.65625 -149.65625 C 144.644531 -151.363281 139.398438 -152.90625 133.921875 -154.28125 C 128.441406 -155.664062 122.890625 -156.796875 117.265625 -157.671875 C 111.648438 -158.546875 106.359375 -158.984375 101.390625 -158.984375 C 92.734375 -158.984375 85.960938 -157.878906 81.078125 -155.671875 C 76.203125 -153.460938 73.765625 -149.734375 73.765625 -144.484375 C 73.765625 -141.992188 74.613281 -139.804688 76.3125 -137.921875 C 78.019531 -136.035156 80.4375 -134.285156 83.5625 -132.671875 C 86.695312 -131.054688 90.453125 -129.488281 94.828125 -127.96875 C 99.203125 -126.457031 104.0625 -124.875 109.40625 -123.21875 L 119.484375 -120.03125 C 127.953125 -117.457031 135.546875 -114.347656 142.265625 -110.703125 C 148.992188 -107.066406 154.679688 -102.785156 159.328125 -97.859375 C 163.984375 -92.929688 167.550781 -87.289062 170.03125 -80.9375 C 172.519531 -74.582031 173.765625 -67.359375 173.765625 -59.265625 C 173.765625 -49.773438 172.269531 -41.140625 169.28125 -33.359375 C 166.289062 -25.578125 161.617188 -18.921875 155.265625 -13.390625 C 148.910156 -7.867188 140.78125 -3.585938 130.875 -0.546875 C 120.976562 2.484375 109.078125 4 95.171875 4 C 82.828125 4 70.554688 2.984375 58.359375 0.953125 C 46.160156 -1.066406 33.84375 -4.609375 21.40625 -9.671875 L 21.40625 -55.25 C 33.289062 -49.175781 44.828125 -44.734375 56.015625 -41.921875 C 67.203125 -39.109375 78.226562 -37.703125 89.09375 -37.703125 C 98.03125 -37.703125 104.546875 -39.128906 108.640625 -41.984375 C 112.734375 -44.847656 114.78125 -48.8125 114.78125 -53.875 C 114.78125 -56.90625 114.019531 -59.503906 112.5 -61.671875 C 110.988281 -63.835938 108.550781 -65.84375 105.1875 -67.6875 C 101.820312 -69.53125 97.421875 -71.394531 91.984375 -73.28125 C 86.554688 -75.164062 79.972656 -77.304688 72.234375 -79.703125 C 64.503906 -82.003906 57.347656 -84.90625 50.765625 -88.40625 C 44.179688 -91.90625 38.492188 -96.117188 33.703125 -101.046875 C 28.910156 -105.972656 25.15625 -111.703125 22.4375 -118.234375 C 19.726562 -124.773438 18.375 -132.234375 18.375 -140.609375 C 18.375 -149.265625 19.890625 -157.1875 22.921875 -164.375 C 25.960938 -171.5625 30.613281 -177.707031 36.875 -182.8125 C 43.144531 -187.925781 51.085938 -191.910156 60.703125 -194.765625 C 70.328125 -197.617188 81.769531 -199.046875 95.03125 -199.046875 C 100.28125 -199.046875 105.851562 -198.816406 111.75 -198.359375 C 117.644531 -197.898438 123.648438 -197.207031 129.765625 -196.28125 C 135.890625 -195.363281 141.945312 -194.164062 147.9375 -192.6875 C 153.925781 -191.21875 159.585938 -189.46875 164.921875 -187.4375 Z M 162.859375 -144.625 "/></g></g></g></g></g></svg>